<svg width="32" height="32" viewBox="0 0 32 32" fill="none" xmlns="http://www.w3.org/2000/svg">
<path d="M18.6665 31H13.3332C8.30485 31 5.7907 31 4.2286 29.4379C2.6665 27.8759 2.6665 25.3616 2.6665 20.3333V17.6667C2.6665 12.6383 2.6665 10.1242 4.2286 8.56209C5.7907 7 8.30485 7 13.3332 7H18.6665C23.6948 7 26.209 7 27.771 8.56209C29.3332 10.1242 29.3332 12.6383 29.3332 17.6667V20.3333C29.3332 25.3616 29.3332 27.8759 27.771 29.4379C26.9001 30.3088 25.7333 30.6941 23.9998 30.8647" stroke="white" stroke-width="1.28" stroke-linecap="round"/>
<path d="M9.33301 7V5" stroke="white" stroke-width="1.28" stroke-linecap="round"/>
<path d="M22.6665 7V5" stroke="white" stroke-width="1.28" stroke-linecap="round"/>
<path d="M28.6665 13.6667H22.1665H14.3332M2.6665 13.6667H7.83317" stroke="white" stroke-width="1.28" stroke-linecap="round"/>
<path d="M23.9997 24.3333C23.9997 25.0697 23.4027 25.6667 22.6663 25.6667C21.9299 25.6667 21.333 25.0697 21.333 24.3333C21.333 23.5969 21.9299 23 22.6663 23C23.4027 23 23.9997 23.5969 23.9997 24.3333Z" fill="white"/>
<path d="M23.9997 19.0001C23.9997 19.7365 23.4027 20.3334 22.6663 20.3334C21.9299 20.3334 21.333 19.7365 21.333 19.0001C21.333 18.2637 21.9299 17.6667 22.6663 17.6667C23.4027 17.6667 23.9997 18.2637 23.9997 19.0001Z" fill="white"/>
<path d="M17.3332 24.3333C17.3332 25.0697 16.7362 25.6667 15.9998 25.6667C15.2634 25.6667 14.6665 25.0697 14.6665 24.3333C14.6665 23.5969 15.2634 23 15.9998 23C16.7362 23 17.3332 23.5969 17.3332 24.3333Z" fill="white"/>
<path d="M17.3332 19.0001C17.3332 19.7365 16.7362 20.3334 15.9998 20.3334C15.2634 20.3334 14.6665 19.7365 14.6665 19.0001C14.6665 18.2637 15.2634 17.6667 15.9998 17.6667C16.7362 17.6667 17.3332 18.2637 17.3332 19.0001Z" fill="white"/>
<path d="M10.6667 24.3333C10.6667 25.0697 10.0697 25.6667 9.33333 25.6667C8.59696 25.6667 8 25.0697 8 24.3333C8 23.5969 8.59696 23 9.33333 23C10.0697 23 10.6667 23.5969 10.6667 24.3333Z" fill="white"/>
<path d="M10.6667 19.0001C10.6667 19.7365 10.0697 20.3334 9.33333 20.3334C8.59696 20.3334 8 19.7365 8 19.0001C8 18.2637 8.59696 17.6667 9.33333 17.6667C10.0697 17.6667 10.6667 18.2637 10.6667 19.0001Z" fill="white"/>
</svg>
