<svg width="28" height="28" viewBox="0 0 28 28" fill="none" xmlns="http://www.w3.org/2000/svg">
<path d="M16.6667 27H11.3333C6.30501 27 3.79086 27 2.22876 25.4379C0.666664 23.8759 0.666664 21.3616 0.666664 16.3333V13.6667C0.666664 8.63835 0.666664 6.1242 2.22876 4.56209C3.79086 3 6.30501 3 11.3333 3H16.6667C21.6949 3 24.2092 3 25.7712 4.56209C27.3333 6.1242 27.3333 8.63835 27.3333 13.6667V16.3333C27.3333 21.3616 27.3333 23.8759 25.7712 25.4379C24.9003 26.3088 23.7335 26.6941 22 26.8647" stroke="black" stroke-width="1.28" stroke-linecap="round"/>
<path d="M7.33333 3V1" stroke="black" stroke-width="1.28" stroke-linecap="round"/>
<path d="M20.6667 3V1" stroke="black" stroke-width="1.28" stroke-linecap="round"/>
<path d="M26.6667 9.66675H20.1667H12.3333M0.666664 9.66675H5.83333" stroke="black" stroke-width="1.28" stroke-linecap="round"/>
<path d="M22 20.3333C22 21.0697 21.4031 21.6667 20.6667 21.6667C19.9303 21.6667 19.3333 21.0697 19.3333 20.3333C19.3333 19.5969 19.9303 19 20.6667 19C21.4031 19 22 19.5969 22 20.3333Z" fill="black"/>
<path d="M22 15.0001C22 15.7365 21.4031 16.3334 20.6667 16.3334C19.9303 16.3334 19.3333 15.7365 19.3333 15.0001C19.3333 14.2637 19.9303 13.6667 20.6667 13.6667C21.4031 13.6667 22 14.2637 22 15.0001Z" fill="black"/>
<path d="M15.3333 20.3333C15.3333 21.0697 14.7364 21.6667 14 21.6667C13.2636 21.6667 12.6667 21.0697 12.6667 20.3333C12.6667 19.5969 13.2636 19 14 19C14.7364 19 15.3333 19.5969 15.3333 20.3333Z" fill="black"/>
<path d="M15.3333 15.0001C15.3333 15.7365 14.7364 16.3334 14 16.3334C13.2636 16.3334 12.6667 15.7365 12.6667 15.0001C12.6667 14.2637 13.2636 13.6667 14 13.6667C14.7364 13.6667 15.3333 14.2637 15.3333 15.0001Z" fill="black"/>
<path d="M8.66666 20.3333C8.66666 21.0697 8.0697 21.6667 7.33333 21.6667C6.59696 21.6667 6 21.0697 6 20.3333C6 19.5969 6.59696 19 7.33333 19C8.0697 19 8.66666 19.5969 8.66666 20.3333Z" fill="black"/>
<path d="M8.66666 15.0001C8.66666 15.7365 8.0697 16.3334 7.33333 16.3334C6.59696 16.3334 6 15.7365 6 15.0001C6 14.2637 6.59696 13.6667 7.33333 13.6667C8.0697 13.6667 8.66666 14.2637 8.66666 15.0001Z" fill="black"/>
</svg>
