<svg width="297" height="28" viewBox="0 0 297 28" fill="none" xmlns="http://www.w3.org/2000/svg">
<g filter="url(#filter0_i_101_192)">
<path d="M24.3764 9.98438H18.777C18.6747 9.25994 18.4659 8.61648 18.1506 8.05398C17.8352 7.48295 17.4304 6.99716 16.9361 6.59659C16.4418 6.19602 15.8707 5.8892 15.223 5.67614C14.5838 5.46307 13.8892 5.35653 13.1392 5.35653C11.7841 5.35653 10.6037 5.69318 9.59801 6.36648C8.59233 7.03125 7.8125 8.00284 7.25852 9.28125C6.70455 10.5511 6.42756 12.0937 6.42756 13.9091C6.42756 15.7756 6.70455 17.3437 7.25852 18.6136C7.82102 19.8835 8.60511 20.8423 9.6108 21.4901C10.6165 22.1378 11.7798 22.4616 13.1009 22.4616C13.8423 22.4616 14.5284 22.3636 15.1591 22.1676C15.7983 21.9716 16.3651 21.6861 16.8594 21.3111C17.3537 20.9276 17.7628 20.4631 18.0866 19.9176C18.419 19.3722 18.6491 18.75 18.777 18.0511L24.3764 18.0767C24.2315 19.2784 23.8693 20.4375 23.2898 21.554C22.7188 22.6619 21.9474 23.6548 20.9759 24.5327C20.0128 25.402 18.8622 26.0923 17.5241 26.6037C16.1946 27.1065 14.6903 27.358 13.0114 27.358C10.6761 27.358 8.58807 26.8295 6.74716 25.7727C4.91477 24.7159 3.46591 23.1861 2.40057 21.1832C1.34375 19.1804 0.815341 16.7557 0.815341 13.9091C0.815341 11.054 1.35227 8.625 2.42614 6.62216C3.5 4.61932 4.95739 3.09375 6.7983 2.04545C8.6392 0.988636 10.7102 0.460226 13.0114 0.460226C14.5284 0.460226 15.9347 0.673295 17.2301 1.09943C18.5341 1.52557 19.6889 2.14773 20.6946 2.96591C21.7003 3.77557 22.5185 4.76846 23.1491 5.9446C23.7884 7.12074 24.1974 8.46733 24.3764 9.98438ZM28.2436 27V7.36364H33.5234V10.7898H33.728C34.0859 9.57102 34.6868 8.65057 35.5305 8.02841C36.3743 7.39773 37.3459 7.08239 38.4453 7.08239C38.718 7.08239 39.0121 7.09943 39.3274 7.13352C39.6428 7.16761 39.9197 7.21449 40.1584 7.27415V12.1065C39.9027 12.0298 39.549 11.9616 39.0973 11.902C38.6456 11.8423 38.2322 11.8125 37.8572 11.8125C37.0561 11.8125 36.3402 11.9872 35.7095 12.3366C35.0874 12.6776 34.593 13.1548 34.2266 13.7685C33.8686 14.3821 33.6896 15.0895 33.6896 15.8906V27H28.2436ZM51.0089 27.3835C48.989 27.3835 47.2504 26.9744 45.793 26.1562C44.3441 25.3295 43.2276 24.1619 42.4435 22.6534C41.6594 21.1364 41.2674 19.3423 41.2674 17.2713C41.2674 15.2514 41.6594 13.4787 42.4435 11.9531C43.2276 10.4276 44.3313 9.23864 45.7546 8.38636C47.1864 7.53409 48.8654 7.10795 50.7915 7.10795C52.087 7.10795 53.293 7.31676 54.4094 7.73438C55.5344 8.14347 56.5146 8.76136 57.3498 9.58807C58.1935 10.4148 58.8498 11.4545 59.3185 12.7074C59.7873 13.9517 60.0217 15.4091 60.0217 17.0795V18.5753H43.4407V15.2003H54.8952C54.8952 14.4162 54.7248 13.7216 54.3839 13.1165C54.043 12.5114 53.57 12.0384 52.9648 11.6974C52.3683 11.348 51.6737 11.1733 50.881 11.1733C50.0543 11.1733 49.3214 11.3651 48.6822 11.7486C48.0515 12.1236 47.5572 12.6307 47.1992 13.2699C46.8413 13.9006 46.658 14.6037 46.6495 15.3793V18.5881C46.6495 19.5597 46.8285 20.3991 47.1864 21.1065C47.5529 21.8139 48.0685 22.3594 48.7333 22.7429C49.3981 23.1264 50.1864 23.3182 51.0984 23.3182C51.7035 23.3182 52.2575 23.233 52.7603 23.0625C53.2631 22.892 53.6935 22.6364 54.0515 22.2955C54.4094 21.9545 54.6822 21.5369 54.8697 21.0426L59.9066 21.375C59.6509 22.5852 59.1268 23.642 58.3342 24.5455C57.5501 25.4403 56.5359 26.1392 55.2915 26.642C54.0558 27.1364 52.6282 27.3835 51.0089 27.3835ZM69.1751 27.3707C67.9222 27.3707 66.8058 27.1534 65.8256 26.7188C64.8455 26.2756 64.07 25.6236 63.4989 24.7628C62.9364 23.8935 62.6552 22.8111 62.6552 21.5156C62.6552 20.4247 62.8555 19.5085 63.256 18.767C63.6566 18.0256 64.2021 17.429 64.8924 16.9773C65.5827 16.5256 66.3668 16.1847 67.2447 15.9545C68.131 15.7244 69.06 15.5625 70.0316 15.4688C71.1737 15.3494 72.0941 15.2386 72.793 15.1364C73.4918 15.0256 73.9989 14.8636 74.3143 14.6506C74.6296 14.4375 74.7873 14.1222 74.7873 13.7045V13.6278C74.7873 12.8182 74.5316 12.1918 74.0202 11.7486C73.5174 11.3054 72.8015 11.0838 71.8725 11.0838C70.8924 11.0838 70.1126 11.3011 69.533 11.7358C68.9535 12.1619 68.57 12.6989 68.3825 13.3466L63.3455 12.9375C63.6012 11.7443 64.104 10.7131 64.854 9.84375C65.604 8.96591 66.5714 8.29261 67.756 7.82386C68.9492 7.34659 70.3299 7.10795 71.8981 7.10795C72.989 7.10795 74.033 7.2358 75.0302 7.49148C76.0359 7.74716 76.9265 8.14347 77.7021 8.6804C78.4862 9.21733 79.104 9.90767 79.5558 10.7514C80.0075 11.5866 80.2333 12.5881 80.2333 13.7557V27H75.0685V24.277H74.9151C74.5998 24.8906 74.1779 25.4318 73.6495 25.9006C73.1211 26.3608 72.4862 26.723 71.7447 26.9872C71.0032 27.2429 70.1467 27.3707 69.1751 27.3707ZM70.7347 23.6122C71.5359 23.6122 72.2433 23.4545 72.8569 23.1392C73.4705 22.8153 73.9521 22.3807 74.3015 21.8352C74.6509 21.2898 74.8256 20.6719 74.8256 19.9815V17.8977C74.6552 18.0085 74.4208 18.1108 74.1225 18.2045C73.8327 18.2898 73.5046 18.3707 73.1381 18.4474C72.7717 18.5156 72.4052 18.5795 72.0387 18.6392C71.6722 18.6903 71.3398 18.7372 71.0415 18.7798C70.4023 18.8736 69.8441 19.0227 69.3668 19.2273C68.8896 19.4318 68.5188 19.7088 68.2546 20.0582C67.9904 20.3991 67.8583 20.8253 67.8583 21.3366C67.8583 22.0781 68.1268 22.6449 68.6637 23.0369C69.2092 23.4205 69.8995 23.6122 70.7347 23.6122ZM94.9031 7.36364V11.4545H83.0778V7.36364H94.9031ZM85.7624 2.65909H91.2085V20.9659C91.2085 21.4687 91.2852 21.8608 91.4386 22.142C91.592 22.4148 91.805 22.6065 92.0778 22.7173C92.359 22.8281 92.6829 22.8835 93.0494 22.8835C93.305 22.8835 93.5607 22.8622 93.8164 22.8196C94.0721 22.7685 94.2681 22.7301 94.4045 22.7045L95.261 26.7571C94.9883 26.8423 94.6048 26.9403 94.1104 27.0511C93.6161 27.1705 93.0153 27.2429 92.3079 27.2685C90.9954 27.3196 89.8448 27.1449 88.8562 26.7443C87.8761 26.3437 87.1133 25.7216 86.5678 24.8778C86.0224 24.0341 85.7539 22.9687 85.7624 21.6818V2.65909ZM107.189 27.3835C105.169 27.3835 103.43 26.9744 101.973 26.1562C100.524 25.3295 99.4073 24.1619 98.6232 22.6534C97.8391 21.1364 97.4471 19.3423 97.4471 17.2713C97.4471 15.2514 97.8391 13.4787 98.6232 11.9531C99.4073 10.4276 100.511 9.23864 101.934 8.38636C103.366 7.53409 105.045 7.10795 106.971 7.10795C108.267 7.10795 109.473 7.31676 110.589 7.73438C111.714 8.14347 112.694 8.76136 113.529 9.58807C114.373 10.4148 115.029 11.4545 115.498 12.7074C115.967 13.9517 116.201 15.4091 116.201 17.0795V18.5753H99.6204V15.2003H111.075C111.075 14.4162 110.904 13.7216 110.564 13.1165C110.223 12.5114 109.75 12.0384 109.145 11.6974C108.548 11.348 107.853 11.1733 107.061 11.1733C106.234 11.1733 105.501 11.3651 104.862 11.7486C104.231 12.1236 103.737 12.6307 103.379 13.2699C103.021 13.9006 102.838 14.6037 102.829 15.3793V18.5881C102.829 19.5597 103.008 20.3991 103.366 21.1065C103.733 21.8139 104.248 22.3594 104.913 22.7429C105.578 23.1264 106.366 23.3182 107.278 23.3182C107.883 23.3182 108.437 23.233 108.94 23.0625C109.443 22.892 109.873 22.6364 110.231 22.2955C110.589 21.9545 110.862 21.5369 111.049 21.0426L116.086 21.375C115.831 22.5852 115.306 23.642 114.514 24.5455C113.73 25.4403 112.716 26.1392 111.471 26.642C110.235 27.1364 108.808 27.3835 107.189 27.3835ZM150.089 0.818181V27H145.308L133.917 10.5213H133.725V27H128.19V0.818181H133.048L144.349 17.2841H144.579V0.818181H150.089ZM163.509 27.3835C161.489 27.3835 159.75 26.9744 158.293 26.1562C156.844 25.3295 155.728 24.1619 154.944 22.6534C154.159 21.1364 153.767 19.3423 153.767 17.2713C153.767 15.2514 154.159 13.4787 154.944 11.9531C155.728 10.4276 156.831 9.23864 158.255 8.38636C159.686 7.53409 161.365 7.10795 163.292 7.10795C164.587 7.10795 165.793 7.31676 166.909 7.73438C168.034 8.14347 169.015 8.76136 169.85 9.58807C170.694 10.4148 171.35 11.4545 171.819 12.7074C172.287 13.9517 172.522 15.4091 172.522 17.0795V18.5753H155.941V15.2003H167.395C167.395 14.4162 167.225 13.7216 166.884 13.1165C166.543 12.5114 166.07 12.0384 165.465 11.6974C164.868 11.348 164.174 11.1733 163.381 11.1733C162.554 11.1733 161.821 11.3651 161.182 11.7486C160.551 12.1236 160.057 12.6307 159.699 13.2699C159.341 13.9006 159.158 14.6037 159.15 15.3793V18.5881C159.15 19.5597 159.328 20.3991 159.686 21.1065C160.053 21.8139 160.569 22.3594 161.233 22.7429C161.898 23.1264 162.686 23.3182 163.598 23.3182C164.203 23.3182 164.757 23.233 165.26 23.0625C165.763 22.892 166.194 22.6364 166.551 22.2955C166.909 21.9545 167.182 21.5369 167.37 21.0426L172.407 21.375C172.151 22.5852 171.627 23.642 170.834 24.5455C170.05 25.4403 169.036 26.1392 167.792 26.642C166.556 27.1364 165.128 27.3835 163.509 27.3835ZM179.809 27L174.465 7.36364H179.975L183.017 20.5568H183.196L186.367 7.36364H191.775L194.996 20.4801H195.162L198.154 7.36364H203.651L198.32 27H192.554L189.179 14.6506H188.936L185.561 27H179.809ZM213.993 5.3821V0.818181H235.496V5.3821H227.48V27H222.009V5.3821H213.993ZM241.863 27.3707C240.61 27.3707 239.493 27.1534 238.513 26.7188C237.533 26.2756 236.757 25.6236 236.186 24.7628C235.624 23.8935 235.343 22.8111 235.343 21.5156C235.343 20.4247 235.543 19.5085 235.944 18.767C236.344 18.0256 236.89 17.429 237.58 16.9773C238.27 16.5256 239.054 16.1847 239.932 15.9545C240.819 15.7244 241.748 15.5625 242.719 15.4688C243.861 15.3494 244.782 15.2386 245.48 15.1364C246.179 15.0256 246.686 14.8636 247.002 14.6506C247.317 14.4375 247.475 14.1222 247.475 13.7045V13.6278C247.475 12.8182 247.219 12.1918 246.708 11.7486C246.205 11.3054 245.489 11.0838 244.56 11.0838C243.58 11.0838 242.8 11.3011 242.221 11.7358C241.641 12.1619 241.257 12.6989 241.07 13.3466L236.033 12.9375C236.289 11.7443 236.792 10.7131 237.542 9.84375C238.292 8.96591 239.259 8.29261 240.444 7.82386C241.637 7.34659 243.017 7.10795 244.586 7.10795C245.676 7.10795 246.721 7.2358 247.718 7.49148C248.723 7.74716 249.614 8.14347 250.39 8.6804C251.174 9.21733 251.792 9.90767 252.243 10.7514C252.695 11.5866 252.921 12.5881 252.921 13.7557V27H247.756V24.277H247.603C247.287 24.8906 246.865 25.4318 246.337 25.9006C245.809 26.3608 245.174 26.723 244.432 26.9872C243.691 27.2429 242.834 27.3707 241.863 27.3707ZM243.422 23.6122C244.223 23.6122 244.931 23.4545 245.544 23.1392C246.158 22.8153 246.64 22.3807 246.989 21.8352C247.338 21.2898 247.513 20.6719 247.513 19.9815V17.8977C247.343 18.0085 247.108 18.1108 246.81 18.2045C246.52 18.2898 246.192 18.3707 245.826 18.4474C245.459 18.5156 245.093 18.5795 244.726 18.6392C244.36 18.6903 244.027 18.7372 243.729 18.7798C243.09 18.8736 242.532 19.0227 242.054 19.2273C241.577 19.4318 241.206 19.7088 240.942 20.0582C240.678 20.3991 240.546 20.8253 240.546 21.3366C240.546 22.0781 240.814 22.6449 241.351 23.0369C241.897 23.4205 242.587 23.6122 243.422 23.6122ZM273.484 12.9631L268.498 13.2699C268.413 12.8437 268.23 12.4602 267.949 12.1193C267.667 11.7699 267.297 11.4929 266.836 11.2884C266.385 11.0753 265.843 10.9688 265.213 10.9688C264.369 10.9688 263.657 11.1477 263.078 11.5057C262.498 11.8551 262.208 12.3239 262.208 12.9119C262.208 13.3807 262.396 13.777 262.771 14.1009C263.146 14.4247 263.789 14.6847 264.701 14.8807L268.255 15.5966C270.164 15.9886 271.588 16.6193 272.525 17.4886C273.463 18.358 273.931 19.5 273.931 20.9148C273.931 22.2017 273.552 23.331 272.794 24.3026C272.044 25.2741 271.012 26.0327 269.7 26.5781C268.396 27.1151 266.892 27.3835 265.187 27.3835C262.588 27.3835 260.517 26.8423 258.974 25.7599C257.44 24.669 256.541 23.1861 256.277 21.3111L261.633 21.0298C261.795 21.8224 262.187 22.4276 262.809 22.8452C263.431 23.2543 264.228 23.4588 265.2 23.4588C266.154 23.4588 266.922 23.2756 267.501 22.9091C268.089 22.5341 268.387 22.0526 268.396 21.4645C268.387 20.9702 268.179 20.5653 267.77 20.25C267.36 19.9261 266.73 19.679 265.877 19.5085L262.477 18.831C260.559 18.4474 259.132 17.7827 258.194 16.8366C257.265 15.8906 256.801 14.6847 256.801 13.2188C256.801 11.9574 257.142 10.8707 257.824 9.95881C258.514 9.04688 259.481 8.34375 260.725 7.84943C261.978 7.35511 263.444 7.10795 265.123 7.10795C267.603 7.10795 269.555 7.6321 270.978 8.6804C272.41 9.72869 273.245 11.1562 273.484 12.9631ZM282.295 21.3494L282.308 14.8168H283.101L289.391 7.36364H295.642L287.192 17.233H285.901L282.295 21.3494ZM277.361 27V0.818181H282.807V27H277.361ZM289.634 27L283.855 18.4474L287.486 14.5994L296.013 27H289.634Z" fill="white"/>
</g>
<defs>
<filter id="filter0_i_101_192" x="0.815369" y="0.460228" width="295.197" height="30.9233" filterUnits="userSpaceOnUse" color-interpolation-filters="sRGB">
<feFlood flood-opacity="0" result="BackgroundImageFix"/>
<feBlend mode="normal" in="SourceGraphic" in2="BackgroundImageFix" result="shape"/>
<feColorMatrix in="SourceAlpha" type="matrix" values="0 0 0 0 0 0 0 0 0 0 0 0 0 0 0 0 0 0 127 0" result="hardAlpha"/>
<feOffset dy="4"/>
<feGaussianBlur stdDeviation="2"/>
<feComposite in2="hardAlpha" operator="arithmetic" k2="-1" k3="1"/>
<feColorMatrix type="matrix" values="0 0 0 0 0 0 0 0 0 0 0 0 0 0 0 0 0 0 0.25 0"/>
<feBlend mode="normal" in2="shape" result="effect1_innerShadow_101_192"/>
</filter>
</defs>
</svg>
