<svg width="159" height="29" viewBox="0 0 159 29" fill="none" xmlns="http://www.w3.org/2000/svg">
<g filter="url(#filter0_i_101_528)">
<path d="M0.275568 28V1.81818H17.9176V6.3821H5.81108V12.6207H17.0099V17.1847H5.81108V23.4361H17.9688V28H0.275568ZM29.4521 28.3196C27.9606 28.3196 26.6097 27.9361 25.3995 27.169C24.1978 26.3935 23.2433 25.2557 22.5359 23.7557C21.837 22.2472 21.4876 20.3977 21.4876 18.2074C21.4876 15.9574 21.8498 14.0866 22.5742 12.5952C23.2987 11.0952 24.2617 9.97443 25.4634 9.23295C26.6737 8.48295 27.9989 8.10795 29.4393 8.10795C30.5387 8.10795 31.4549 8.29545 32.1879 8.67045C32.9293 9.03693 33.5259 9.49716 33.9776 10.0511C34.4379 10.5966 34.7873 11.1335 35.0259 11.6619H35.1921V1.81818H40.6254V28H35.256V24.8551H35.0259C34.7702 25.4006 34.408 25.9418 33.9393 26.4787C33.479 27.0071 32.8782 27.446 32.1367 27.7955C31.4038 28.1449 30.5089 28.3196 29.4521 28.3196ZM31.1779 23.9858C32.0558 23.9858 32.7972 23.7472 33.4023 23.2699C34.016 22.7841 34.4847 22.1065 34.8086 21.2372C35.141 20.3679 35.3072 19.3494 35.3072 18.1818C35.3072 17.0142 35.1452 16 34.8214 15.1392C34.4975 14.2784 34.0288 13.6136 33.4151 13.1449C32.8015 12.6761 32.0558 12.4418 31.1779 12.4418C30.283 12.4418 29.5288 12.6847 28.9151 13.1705C28.3015 13.6562 27.837 14.3295 27.5217 15.1903C27.2063 16.0511 27.0487 17.0483 27.0487 18.1818C27.0487 19.3239 27.2063 20.3338 27.5217 21.2116C27.8455 22.081 28.31 22.7628 28.9151 23.2571C29.5288 23.7429 30.283 23.9858 31.1779 23.9858ZM45.103 28V8.36364H50.549V28H45.103ZM47.8388 5.83239C47.0291 5.83239 46.3345 5.56392 45.755 5.02699C45.1839 4.48153 44.8984 3.82954 44.8984 3.07102C44.8984 2.32102 45.1839 1.67756 45.755 1.14062C46.3345 0.59517 47.0291 0.322442 47.8388 0.322442C48.6484 0.322442 49.3388 0.59517 49.9098 1.14062C50.4893 1.67756 50.7791 2.32102 50.7791 3.07102C50.7791 3.82954 50.4893 4.48153 49.9098 5.02699C49.3388 5.56392 48.6484 5.83239 47.8388 5.83239ZM65.3562 8.36364V12.4545H53.5309V8.36364H65.3562ZM56.2156 3.65909H61.6616V21.9659C61.6616 22.4687 61.7383 22.8608 61.8917 23.142C62.0451 23.4148 62.2582 23.6065 62.5309 23.7173C62.8121 23.8281 63.136 23.8835 63.5025 23.8835C63.7582 23.8835 64.0138 23.8622 64.2695 23.8196C64.5252 23.7685 64.7212 23.7301 64.8576 23.7045L65.7141 27.7571C65.4414 27.8423 65.0579 27.9403 64.5636 28.0511C64.0692 28.1705 63.4684 28.2429 62.761 28.2685C61.4485 28.3196 60.2979 28.1449 59.3093 27.7443C58.3292 27.3437 57.5664 26.7216 57.021 25.8778C56.4755 25.0341 56.207 23.9687 56.2156 22.6818V3.65909ZM76.3409 6.3821V1.81818H97.8438V6.3821H89.8281V28H84.3565V6.3821H76.3409ZM104.21 28.3707C102.957 28.3707 101.841 28.1534 100.861 27.7188C99.8807 27.2756 99.1051 26.6236 98.5341 25.7628C97.9716 24.8935 97.6903 23.8111 97.6903 22.5156C97.6903 21.4247 97.8906 20.5085 98.2912 19.767C98.6918 19.0256 99.2372 18.429 99.9276 17.9773C100.618 17.5256 101.402 17.1847 102.28 16.9545C103.166 16.7244 104.095 16.5625 105.067 16.4688C106.209 16.3494 107.129 16.2386 107.828 16.1364C108.527 16.0256 109.034 15.8636 109.349 15.6506C109.665 15.4375 109.822 15.1222 109.822 14.7045V14.6278C109.822 13.8182 109.567 13.1918 109.055 12.7486C108.553 12.3054 107.837 12.0838 106.908 12.0838C105.928 12.0838 105.148 12.3011 104.568 12.7358C103.989 13.1619 103.605 13.6989 103.418 14.3466L98.3807 13.9375C98.6364 12.7443 99.1392 11.7131 99.8892 10.8438C100.639 9.96591 101.607 9.29261 102.791 8.82386C103.984 8.34659 105.365 8.10795 106.933 8.10795C108.024 8.10795 109.068 8.2358 110.065 8.49148C111.071 8.74716 111.962 9.14347 112.737 9.6804C113.521 10.2173 114.139 10.9077 114.591 11.7514C115.043 12.5866 115.268 13.5881 115.268 14.7557V28H110.104V25.277H109.95C109.635 25.8906 109.213 26.4318 108.685 26.9006C108.156 27.3608 107.521 27.723 106.78 27.9872C106.038 28.2429 105.182 28.3707 104.21 28.3707ZM105.77 24.6122C106.571 24.6122 107.278 24.4545 107.892 24.1392C108.506 23.8153 108.987 23.3807 109.337 22.8352C109.686 22.2898 109.861 21.6719 109.861 20.9815V18.8977C109.69 19.0085 109.456 19.1108 109.158 19.2045C108.868 19.2898 108.54 19.3707 108.173 19.4474C107.807 19.5156 107.44 19.5795 107.074 19.6392C106.707 19.6903 106.375 19.7372 106.077 19.7798C105.438 19.8736 104.879 20.0227 104.402 20.2273C103.925 20.4318 103.554 20.7088 103.29 21.0582C103.026 21.3991 102.893 21.8253 102.893 22.3366C102.893 23.0781 103.162 23.6449 103.699 24.0369C104.244 24.4205 104.935 24.6122 105.77 24.6122ZM135.832 13.9631L130.846 14.2699C130.761 13.8437 130.577 13.4602 130.296 13.1193C130.015 12.7699 129.644 12.4929 129.184 12.2884C128.732 12.0753 128.191 11.9688 127.56 11.9688C126.717 11.9688 126.005 12.1477 125.425 12.5057C124.846 12.8551 124.556 13.3239 124.556 13.9119C124.556 14.3807 124.744 14.777 125.119 15.1009C125.494 15.4247 126.137 15.6847 127.049 15.8807L130.603 16.5966C132.512 16.9886 133.935 17.6193 134.873 18.4886C135.81 19.358 136.279 20.5 136.279 21.9148C136.279 23.2017 135.9 24.331 135.141 25.3026C134.391 26.2741 133.36 27.0327 132.048 27.5781C130.744 28.1151 129.239 28.3835 127.535 28.3835C124.935 28.3835 122.864 27.8423 121.322 26.7599C119.788 25.669 118.888 24.1861 118.624 22.3111L123.981 22.0298C124.143 22.8224 124.535 23.4276 125.157 23.8452C125.779 24.2543 126.576 24.4588 127.548 24.4588C128.502 24.4588 129.269 24.2756 129.849 23.9091C130.437 23.5341 130.735 23.0526 130.744 22.4645C130.735 21.9702 130.526 21.5653 130.117 21.25C129.708 20.9261 129.077 20.679 128.225 20.5085L124.825 19.831C122.907 19.4474 121.479 18.7827 120.542 17.8366C119.613 16.8906 119.148 15.6847 119.148 14.2188C119.148 12.9574 119.489 11.8707 120.171 10.9588C120.862 10.0469 121.829 9.34375 123.073 8.84943C124.326 8.35511 125.792 8.10795 127.471 8.10795C129.951 8.10795 131.903 8.6321 133.326 9.6804C134.758 10.7287 135.593 12.1562 135.832 13.9631ZM144.643 22.3494L144.656 15.8168H145.449L151.738 8.36364H157.99L149.539 18.233H148.248L144.643 22.3494ZM139.708 28V1.81818H145.154V28H139.708ZM151.981 28L146.203 19.4474L149.833 15.5994L158.36 28H151.981Z" fill="white"/>
</g>
<defs>
<filter id="filter0_i_101_528" x="0.275513" y="0.322441" width="158.085" height="32.0611" filterUnits="userSpaceOnUse" color-interpolation-filters="sRGB">
<feFlood flood-opacity="0" result="BackgroundImageFix"/>
<feBlend mode="normal" in="SourceGraphic" in2="BackgroundImageFix" result="shape"/>
<feColorMatrix in="SourceAlpha" type="matrix" values="0 0 0 0 0 0 0 0 0 0 0 0 0 0 0 0 0 0 127 0" result="hardAlpha"/>
<feOffset dy="4"/>
<feGaussianBlur stdDeviation="2"/>
<feComposite in2="hardAlpha" operator="arithmetic" k2="-1" k3="1"/>
<feColorMatrix type="matrix" values="0 0 0 0 0 0 0 0 0 0 0 0 0 0 0 0 0 0 0.25 0"/>
<feBlend mode="normal" in2="shape" result="effect1_innerShadow_101_528"/>
</filter>
</defs>
</svg>
