<svg width="22" height="22" viewBox="0 0 22 22" fill="none" xmlns="http://www.w3.org/2000/svg">
<path d="M18.7777 0.999985H15.4444C14.2171 0.999985 13.2222 1.99491 13.2222 3.22221V6.55554C13.2222 7.78284 14.2171 8.77775 15.4444 8.77775H18.7777C20.0051 8.77775 20.9999 7.78284 20.9999 6.55554V3.22221C20.9999 1.99491 20.0051 0.999985 18.7777 0.999985Z" stroke="#D9D9D9" stroke-width="1.38889" stroke-linecap="round" stroke-linejoin="round"/>
<path d="M6.55556 1H3.22222C1.99492 1 1 1.99492 1 3.22222V6.55556C1 7.78286 1.99492 8.77777 3.22222 8.77777H6.55556C7.78286 8.77777 8.77778 7.78286 8.77778 6.55556V3.22222C8.77778 1.99492 7.78286 1 6.55556 1Z" stroke="#D9D9D9" stroke-width="1.38889" stroke-linecap="round" stroke-linejoin="round"/>
<path d="M18.7777 13.2222H15.4444C14.2171 13.2222 13.2222 14.2171 13.2222 15.4444V18.7778C13.2222 20.0051 14.2171 21 15.4444 21H18.7777C20.0051 21 20.9999 20.0051 20.9999 18.7778V15.4444C20.9999 14.2171 20.0051 13.2222 18.7777 13.2222Z" stroke="#D9D9D9" stroke-width="1.38889" stroke-linecap="round" stroke-linejoin="round"/>
<path d="M6.55556 13.2222H3.22222C1.99492 13.2222 1 14.2171 1 15.4444V18.7778C1 20.0051 1.99492 21 3.22222 21H6.55556C7.78286 21 8.77778 20.0051 8.77778 18.7778V15.4444C8.77778 14.2171 7.78286 13.2222 6.55556 13.2222Z" stroke="#D9D9D9" stroke-width="1.38889" stroke-linecap="round" stroke-linejoin="round"/>
</svg>
