<svg width="24" height="28" viewBox="0 0 24 28" fill="none" xmlns="http://www.w3.org/2000/svg">
<path d="M15.7985 23.9258C15.7985 24.3302 15.695 24.7307 15.4941 25.1044C15.293 25.4782 14.9985 25.8176 14.6272 26.1038C14.2557 26.3898 13.8148 26.6166 13.3296 26.7714C12.8444 26.9262 12.3242 27.0059 11.799 27.0059C11.2738 27.0059 10.7538 26.9262 10.2685 26.7714C9.7833 26.6166 9.34237 26.3898 8.97105 26.1038C8.59967 25.8176 8.30507 25.4782 8.10409 25.1044C7.90309 24.7307 7.79965 24.3302 7.79965 23.9258" stroke="black" stroke-width="1.28" stroke-linecap="round"/>
<path d="M22.121 15.5876L22.4738 16.3486C23.8198 19.2512 22.0669 22.6438 18.9208 23.2253L18.7072 23.2648C14.1405 24.1089 9.4577 24.1089 4.89101 23.2648C1.71913 22.6785 0.0410608 19.1693 1.57594 16.3324L1.87782 15.7744C2.70205 14.2509 3.13367 12.546 3.13367 10.8139V9.05214C3.13367 6.08709 4.81186 3.37747 7.46639 2.05647C10.2054 0.693435 13.415 0.647075 16.1922 1.93042L16.4652 2.05647C19.3098 3.37098 21.1312 6.21897 21.1312 9.35267V11.1002C21.1312 12.6501 21.4689 14.1814 22.121 15.5876Z" stroke="black" stroke-width="1.28"/>
</svg>
