<svg width="24" height="28" viewBox="0 0 24 28" fill="none" xmlns="http://www.w3.org/2000/svg">
<path d="M15.7987 23.9258C15.7987 24.3302 15.6952 24.7307 15.4943 25.1044C15.2932 25.4782 14.9987 25.8176 14.6273 26.1038C14.2559 26.3898 13.8149 26.6166 13.3297 26.7714C12.8445 26.9262 12.3244 27.0059 11.7992 27.0059C11.274 27.0059 10.754 26.9262 10.2687 26.7714C9.78346 26.6166 9.34252 26.3898 8.9712 26.1038C8.59983 25.8176 8.30523 25.4782 8.10424 25.1044C7.90324 24.7307 7.7998 24.3302 7.7998 23.9258" stroke="white" stroke-width="1.28" stroke-linecap="round"/>
<path d="M22.121 15.5876L22.4738 16.3486C23.8198 19.2512 22.0669 22.6438 18.9208 23.2253L18.7072 23.2648C14.1405 24.1089 9.4577 24.1089 4.89101 23.2648C1.71913 22.6785 0.0410608 19.1693 1.57594 16.3324L1.87782 15.7744C2.70205 14.2509 3.13367 12.546 3.13367 10.8139V9.05214C3.13367 6.08709 4.81186 3.37747 7.46639 2.05647C10.2054 0.693435 13.415 0.647075 16.1922 1.93042L16.4652 2.05647C19.3098 3.37098 21.1312 6.21897 21.1312 9.35267V11.1002C21.1312 12.6501 21.4689 14.1814 22.121 15.5876Z" stroke="white" stroke-width="1.28"/>
</svg>
