<svg width="203" height="29" viewBox="0 0 203 29" fill="none" xmlns="http://www.w3.org/2000/svg">
<g filter="url(#filter0_i_305_209)">
<path d="M22.1747 1.81818V28H17.3935L6.00284 11.5213H5.81108V28H0.275568V1.81818H5.13352L16.4347 18.2841H16.6648V1.81818H22.1747ZM35.5181 28.3835C33.5323 28.3835 31.815 27.9616 30.3661 27.1179C28.9258 26.2656 27.8136 25.081 27.0295 23.5639C26.2454 22.0384 25.8533 20.2699 25.8533 18.2585C25.8533 16.2301 26.2454 14.4574 27.0295 12.9403C27.8136 11.4148 28.9258 10.2301 30.3661 9.38636C31.815 8.53409 33.5323 8.10795 35.5181 8.10795C37.5039 8.10795 39.217 8.53409 40.6573 9.38636C42.1062 10.2301 43.2227 11.4148 44.0067 12.9403C44.7908 14.4574 45.1829 16.2301 45.1829 18.2585C45.1829 20.2699 44.7908 22.0384 44.0067 23.5639C43.2227 25.081 42.1062 26.2656 40.6573 27.1179C39.217 27.9616 37.5039 28.3835 35.5181 28.3835ZM35.5437 24.1648C36.4471 24.1648 37.2013 23.9091 37.8065 23.3977C38.4116 22.8778 38.8675 22.1705 39.1744 21.2756C39.4897 20.3807 39.6474 19.3622 39.6474 18.2202C39.6474 17.0781 39.4897 16.0597 39.1744 15.1648C38.8675 14.2699 38.4116 13.5625 37.8065 13.0426C37.2013 12.5227 36.4471 12.2628 35.5437 12.2628C34.6317 12.2628 33.8647 12.5227 33.2425 13.0426C32.6289 13.5625 32.1644 14.2699 31.8491 15.1648C31.5423 16.0597 31.3888 17.0781 31.3888 18.2202C31.3888 19.3622 31.5423 20.3807 31.8491 21.2756C32.1644 22.1705 32.6289 22.8778 33.2425 23.3977C33.8647 23.9091 34.6317 24.1648 35.5437 24.1648ZM59.1687 8.36364V12.4545H47.3434V8.36364H59.1687ZM50.0281 3.65909H55.4741V21.9659C55.4741 22.4687 55.5508 22.8608 55.7042 23.142C55.8576 23.4148 56.0707 23.6065 56.3434 23.7173C56.6246 23.8281 56.9485 23.8835 57.315 23.8835C57.5707 23.8835 57.8263 23.8622 58.082 23.8196C58.3377 23.7685 58.5337 23.7301 58.6701 23.7045L59.5266 27.7571C59.2539 27.8423 58.8704 27.9403 58.3761 28.0511C57.8817 28.1705 57.2809 28.2429 56.5735 28.2685C55.261 28.3196 54.1104 28.1449 53.1218 27.7443C52.1417 27.3437 51.3789 26.7216 50.8335 25.8778C50.288 25.0341 50.0195 23.9687 50.0281 22.6818V3.65909ZM62.7163 28V8.36364H68.1623V28H62.7163ZM65.4521 5.83239C64.6424 5.83239 63.9478 5.56392 63.3683 5.02699C62.7972 4.48153 62.5117 3.82954 62.5117 3.07102C62.5117 2.32102 62.7972 1.67756 63.3683 1.14062C63.9478 0.59517 64.6424 0.322442 65.4521 0.322442C66.2617 0.322442 66.9521 0.59517 67.5231 1.14062C68.1026 1.67756 68.3924 2.32102 68.3924 3.07102C68.3924 3.82954 68.1026 4.48153 67.5231 5.02699C66.9521 5.56392 66.2617 5.83239 65.4521 5.83239ZM83.0845 8.36364V12.4545H70.9652V8.36364H83.0845ZM73.7393 28V6.9446C73.7393 5.52131 74.0163 4.34091 74.5703 3.40341C75.1328 2.46591 75.8999 1.76278 76.8714 1.29403C77.843 0.825282 78.9467 0.590907 80.1825 0.590907C81.0178 0.590907 81.7805 0.654828 82.4709 0.78267C83.1697 0.910511 83.6896 1.02557 84.0305 1.12784L83.0589 5.21875C82.8459 5.15057 82.5817 5.08665 82.2663 5.02699C81.9595 4.96733 81.6442 4.9375 81.3203 4.9375C80.5192 4.9375 79.9609 5.125 79.6456 5.5C79.3303 5.86648 79.1726 6.3821 79.1726 7.04688V28H73.7393ZM86.4116 28V8.36364H91.8576V28H86.4116ZM89.1474 5.83239C88.3377 5.83239 87.6431 5.56392 87.0636 5.02699C86.4925 4.48153 86.207 3.82954 86.207 3.07102C86.207 2.32102 86.4925 1.67756 87.0636 1.14062C87.6431 0.59517 88.3377 0.322442 89.1474 0.322442C89.957 0.322442 90.6474 0.59517 91.2184 1.14062C91.7979 1.67756 92.0877 2.32102 92.0877 3.07102C92.0877 3.82954 91.7979 4.48153 91.2184 5.02699C90.6474 5.56392 89.957 5.83239 89.1474 5.83239ZM105.092 28.3835C103.081 28.3835 101.351 27.9574 99.902 27.1051C98.4616 26.2443 97.3537 25.0511 96.5781 23.5256C95.8111 22 95.4276 20.2443 95.4276 18.2585C95.4276 16.2472 95.8153 14.483 96.5909 12.9659C97.375 11.4403 98.4872 10.2514 99.9276 9.39915C101.368 8.53835 103.081 8.10795 105.067 8.10795C106.78 8.10795 108.28 8.41903 109.567 9.04119C110.854 9.66335 111.872 10.5369 112.622 11.6619C113.372 12.7869 113.786 14.108 113.862 15.625H108.723C108.578 14.6449 108.195 13.8565 107.572 13.2599C106.959 12.6548 106.153 12.3523 105.156 12.3523C104.312 12.3523 103.575 12.5824 102.945 13.0426C102.322 13.4943 101.837 14.1548 101.487 15.0241C101.138 15.8935 100.963 16.946 100.963 18.1818C100.963 19.4347 101.134 20.5 101.474 21.3778C101.824 22.2557 102.314 22.9247 102.945 23.3849C103.575 23.8452 104.312 24.0753 105.156 24.0753C105.778 24.0753 106.337 23.9474 106.831 23.6918C107.334 23.4361 107.747 23.0653 108.071 22.5795C108.403 22.0852 108.621 21.4929 108.723 20.8026H113.862C113.777 22.3026 113.368 23.6236 112.635 24.7656C111.911 25.8991 110.909 26.7855 109.631 27.4247C108.352 28.0639 106.839 28.3835 105.092 28.3835ZM122.949 28.3707C121.696 28.3707 120.579 28.1534 119.599 27.7188C118.619 27.2756 117.843 26.6236 117.272 25.7628C116.71 24.8935 116.429 23.8111 116.429 22.5156C116.429 21.4247 116.629 20.5085 117.029 19.767C117.43 19.0256 117.975 18.429 118.666 17.9773C119.356 17.5256 120.14 17.1847 121.018 16.9545C121.904 16.7244 122.833 16.5625 123.805 16.4688C124.947 16.3494 125.868 16.2386 126.566 16.1364C127.265 16.0256 127.772 15.8636 128.088 15.6506C128.403 15.4375 128.561 15.1222 128.561 14.7045V14.6278C128.561 13.8182 128.305 13.1918 127.794 12.7486C127.291 12.3054 126.575 12.0838 125.646 12.0838C124.666 12.0838 123.886 12.3011 123.306 12.7358C122.727 13.1619 122.343 13.6989 122.156 14.3466L117.119 13.9375C117.375 12.7443 117.877 11.7131 118.627 10.8438C119.377 9.96591 120.345 9.29261 121.529 8.82386C122.723 8.34659 124.103 8.10795 125.672 8.10795C126.762 8.10795 127.806 8.2358 128.804 8.49148C129.809 8.74716 130.7 9.14347 131.475 9.6804C132.26 10.2173 132.877 10.9077 133.329 11.7514C133.781 12.5866 134.007 13.5881 134.007 14.7557V28H128.842V25.277H128.689C128.373 25.8906 127.951 26.4318 127.423 26.9006C126.895 27.3608 126.26 27.723 125.518 27.9872C124.777 28.2429 123.92 28.3707 122.949 28.3707ZM124.508 24.6122C125.309 24.6122 126.017 24.4545 126.63 24.1392C127.244 23.8153 127.725 23.3807 128.075 22.8352C128.424 22.2898 128.599 21.6719 128.599 20.9815V18.8977C128.429 19.0085 128.194 19.1108 127.896 19.2045C127.606 19.2898 127.278 19.3707 126.912 19.4474C126.545 19.5156 126.179 19.5795 125.812 19.6392C125.446 19.6903 125.113 19.7372 124.815 19.7798C124.176 19.8736 123.618 20.0227 123.14 20.2273C122.663 20.4318 122.292 20.7088 122.028 21.0582C121.764 21.3991 121.632 21.8253 121.632 22.3366C121.632 23.0781 121.9 23.6449 122.437 24.0369C122.983 24.4205 123.673 24.6122 124.508 24.6122ZM148.676 8.36364V12.4545H136.851V8.36364H148.676ZM139.536 3.65909H144.982V21.9659C144.982 22.4687 145.059 22.8608 145.212 23.142C145.365 23.4148 145.578 23.6065 145.851 23.7173C146.132 23.8281 146.456 23.8835 146.823 23.8835C147.078 23.8835 147.334 23.8622 147.59 23.8196C147.846 23.7685 148.042 23.7301 148.178 23.7045L149.034 27.7571C148.762 27.8423 148.378 27.9403 147.884 28.0511C147.39 28.1705 146.789 28.2429 146.081 28.2685C144.769 28.3196 143.618 28.1449 142.63 27.7443C141.65 27.3437 140.887 26.7216 140.341 25.8778C139.796 25.0341 139.527 23.9687 139.536 22.6818V3.65909ZM152.224 28V8.36364H157.67V28H152.224ZM154.96 5.83239C154.15 5.83239 153.456 5.56392 152.876 5.02699C152.305 4.48153 152.02 3.82954 152.02 3.07102C152.02 2.32102 152.305 1.67756 152.876 1.14062C153.456 0.59517 154.15 0.322442 154.96 0.322442C155.77 0.322442 156.46 0.59517 157.031 1.14062C157.61 1.67756 157.9 2.32102 157.9 3.07102C157.9 3.82954 157.61 4.48153 157.031 5.02699C156.46 5.56392 155.77 5.83239 154.96 5.83239ZM170.905 28.3835C168.919 28.3835 167.202 27.9616 165.753 27.1179C164.313 26.2656 163.2 25.081 162.416 23.5639C161.632 22.0384 161.24 20.2699 161.24 18.2585C161.24 16.2301 161.632 14.4574 162.416 12.9403C163.2 11.4148 164.313 10.2301 165.753 9.38636C167.202 8.53409 168.919 8.10795 170.905 8.10795C172.891 8.10795 174.604 8.53409 176.044 9.38636C177.493 10.2301 178.609 11.4148 179.393 12.9403C180.178 14.4574 180.57 16.2301 180.57 18.2585C180.57 20.2699 180.178 22.0384 179.393 23.5639C178.609 25.081 177.493 26.2656 176.044 27.1179C174.604 27.9616 172.891 28.3835 170.905 28.3835ZM170.93 24.1648C171.834 24.1648 172.588 23.9091 173.193 23.3977C173.798 22.8778 174.254 22.1705 174.561 21.2756C174.876 20.3807 175.034 19.3622 175.034 18.2202C175.034 17.0781 174.876 16.0597 174.561 15.1648C174.254 14.2699 173.798 13.5625 173.193 13.0426C172.588 12.5227 171.834 12.2628 170.93 12.2628C170.018 12.2628 169.251 12.5227 168.629 13.0426C168.016 13.5625 167.551 14.2699 167.236 15.1648C166.929 16.0597 166.776 17.0781 166.776 18.2202C166.776 19.3622 166.929 20.3807 167.236 21.2756C167.551 22.1705 168.016 22.8778 168.629 23.3977C169.251 23.9091 170.018 24.1648 170.93 24.1648ZM189.557 16.6477V28H184.111V8.36364H189.301V11.8281H189.531C189.966 10.6861 190.695 9.78267 191.717 9.1179C192.74 8.4446 193.98 8.10795 195.438 8.10795C196.801 8.10795 197.99 8.40625 199.004 9.00284C200.018 9.59943 200.807 10.4517 201.369 11.5597C201.932 12.6591 202.213 13.9716 202.213 15.4972V28H196.767V16.4688C196.776 15.267 196.469 14.3295 195.847 13.6562C195.224 12.9744 194.368 12.6335 193.277 12.6335C192.544 12.6335 191.896 12.7912 191.334 13.1065C190.78 13.4219 190.345 13.8821 190.03 14.4872C189.723 15.0838 189.565 15.804 189.557 16.6477Z" fill="#292D32"/>
</g>
<defs>
<filter id="filter0_i_305_209" x="0.275391" y="0.322388" width="201.938" height="32.0612" filterUnits="userSpaceOnUse" color-interpolation-filters="sRGB">
<feFlood flood-opacity="0" result="BackgroundImageFix"/>
<feBlend mode="normal" in="SourceGraphic" in2="BackgroundImageFix" result="shape"/>
<feColorMatrix in="SourceAlpha" type="matrix" values="0 0 0 0 0 0 0 0 0 0 0 0 0 0 0 0 0 0 127 0" result="hardAlpha"/>
<feOffset dy="4"/>
<feGaussianBlur stdDeviation="2"/>
<feComposite in2="hardAlpha" operator="arithmetic" k2="-1" k3="1"/>
<feColorMatrix type="matrix" values="0 0 0 0 0 0 0 0 0 0 0 0 0 0 0 0 0 0 0.25 0"/>
<feBlend mode="normal" in2="shape" result="effect1_innerShadow_305_209"/>
</filter>
</defs>
</svg>
