<svg width="32" height="32" viewBox="0 0 32 32" fill="none" xmlns="http://www.w3.org/2000/svg">
<path fill-rule="evenodd" clip-rule="evenodd" d="M17.3333 5.33333C17.3333 4.59696 16.7364 4 16 4C15.2636 4 14.6667 4.59696 14.6667 5.33333V14.6667H5.33333C4.59696 14.6667 4 15.2636 4 16C4 16.7364 4.59696 17.3333 5.33333 17.3333H14.6667V26.6667C14.6667 27.4031 15.2636 28 16 28C16.7364 28 17.3333 27.4031 17.3333 26.6667V17.3333H26.6667C27.4031 17.3333 28 16.7364 28 16C28 15.2636 27.4031 14.6667 26.6667 14.6667H17.3333V5.33333Z" fill="white"/>
</svg>
