<svg width="28" height="29" viewBox="0 0 28 29" fill="none" xmlns="http://www.w3.org/2000/svg">
<path d="M10.2134 12.8267C10.0801 12.8133 9.92009 12.8133 9.77343 12.8267C6.60009 12.72 4.08009 10.12 4.08009 6.92C4.08009 3.65333 6.72009 1 10.0001 1C13.2668 1 15.9201 3.65333 15.9201 6.92C15.9068 10.12 13.3868 12.72 10.2134 12.8267Z" stroke="black" stroke-width="1.6" stroke-linecap="round" stroke-linejoin="round"/>
<path d="M19.88 3.66663C22.4667 3.66663 24.5467 5.75996 24.5467 8.33329C24.5467 10.8533 22.5467 12.9066 20.0534 13C19.9467 12.9866 19.8267 12.9866 19.7067 13" stroke="black" stroke-width="1.6" stroke-linecap="round" stroke-linejoin="round"/>
<path d="M3.54665 17.7466C0.319981 19.9066 0.319981 23.4266 3.54665 25.5733C7.21331 28.0266 13.2267 28.0266 16.8934 25.5733C20.12 23.4133 20.12 19.8933 16.8934 17.7466C13.24 15.3066 7.22665 15.3066 3.54665 17.7466Z" stroke="black" stroke-width="1.6" stroke-linecap="round" stroke-linejoin="round"/>
<path d="M22.4535 25C23.4135 24.8 24.3202 24.4133 25.0668 23.84C27.1468 22.28 27.1468 19.7067 25.0668 18.1467C24.3335 17.5867 23.4402 17.2133 22.4935 17" stroke="black" stroke-width="1.6" stroke-linecap="round" stroke-linejoin="round"/>
</svg>
