<svg width="171" height="29" viewBox="0 0 171 29" fill="none" xmlns="http://www.w3.org/2000/svg">
<g filter="url(#filter0_i_305_182)">
<path d="M0.278409 6.3821V1.81818H21.7812V6.3821H13.7656V28H8.29403V6.3821H0.278409ZM31.2447 28.3835C29.2589 28.3835 27.5415 27.9616 26.0927 27.1179C24.6523 26.2656 23.5401 25.081 22.756 23.5639C21.9719 22.0384 21.5799 20.2699 21.5799 18.2585C21.5799 16.2301 21.9719 14.4574 22.756 12.9403C23.5401 11.4148 24.6523 10.2301 26.0927 9.38636C27.5415 8.53409 29.2589 8.10795 31.2447 8.10795C33.2305 8.10795 34.9435 8.53409 36.3839 9.38636C37.8327 10.2301 38.9492 11.4148 39.7333 12.9403C40.5174 14.4574 40.9094 16.2301 40.9094 18.2585C40.9094 20.2699 40.5174 22.0384 39.7333 23.5639C38.9492 25.081 37.8327 26.2656 36.3839 27.1179C34.9435 27.9616 33.2305 28.3835 31.2447 28.3835ZM31.2702 24.1648C32.1737 24.1648 32.9279 23.9091 33.533 23.3977C34.1381 22.8778 34.5941 22.1705 34.9009 21.2756C35.2163 20.3807 35.3739 19.3622 35.3739 18.2202C35.3739 17.0781 35.2163 16.0597 34.9009 15.1648C34.5941 14.2699 34.1381 13.5625 33.533 13.0426C32.9279 12.5227 32.1737 12.2628 31.2702 12.2628C30.3583 12.2628 29.5913 12.5227 28.9691 13.0426C28.3555 13.5625 27.891 14.2699 27.5756 15.1648C27.2688 16.0597 27.1154 17.0781 27.1154 18.2202C27.1154 19.3622 27.2688 20.3807 27.5756 21.2756C27.891 22.1705 28.3555 22.8778 28.9691 23.3977C29.5913 23.9091 30.3583 24.1648 31.2702 24.1648ZM62.1662 28H52.8849V1.81818H62.2429C64.8764 1.81818 67.1435 2.34233 69.044 3.39062C70.9446 4.4304 72.4063 5.92614 73.429 7.87784C74.4602 9.82955 74.9759 12.1648 74.9759 14.8835C74.9759 17.6108 74.4602 19.9545 73.429 21.9148C72.4063 23.875 70.9361 25.3793 69.0185 26.4276C67.1094 27.4759 64.8253 28 62.1662 28ZM58.4205 23.2571H61.9361C63.5724 23.2571 64.9489 22.9673 66.0653 22.3878C67.1903 21.7997 68.0341 20.892 68.5966 19.6648C69.1676 18.429 69.4531 16.8352 69.4531 14.8835C69.4531 12.9489 69.1676 11.3679 68.5966 10.1406C68.0341 8.91335 67.1946 8.00994 66.0781 7.4304C64.9616 6.85085 63.5852 6.56108 61.9489 6.56108H58.4205V23.2571ZM87.8462 28.3835C85.8604 28.3835 84.1431 27.9616 82.6942 27.1179C81.2539 26.2656 80.1417 25.081 79.3576 23.5639C78.5735 22.0384 78.1815 20.2699 78.1815 18.2585C78.1815 16.2301 78.5735 14.4574 79.3576 12.9403C80.1417 11.4148 81.2539 10.2301 82.6942 9.38636C84.1431 8.53409 85.8604 8.10795 87.8462 8.10795C89.832 8.10795 91.5451 8.53409 92.9854 9.38636C94.4343 10.2301 95.5508 11.4148 96.3349 12.9403C97.119 14.4574 97.511 16.2301 97.511 18.2585C97.511 20.2699 97.119 22.0384 96.3349 23.5639C95.5508 25.081 94.4343 26.2656 92.9854 27.1179C91.5451 27.9616 89.832 28.3835 87.8462 28.3835ZM87.8718 24.1648C88.7752 24.1648 89.5295 23.9091 90.1346 23.3977C90.7397 22.8778 91.1957 22.1705 91.5025 21.2756C91.8178 20.3807 91.9755 19.3622 91.9755 18.2202C91.9755 17.0781 91.8178 16.0597 91.5025 15.1648C91.1957 14.2699 90.7397 13.5625 90.1346 13.0426C89.5295 12.5227 88.7752 12.2628 87.8718 12.2628C86.9599 12.2628 86.1928 12.5227 85.5707 13.0426C84.957 13.5625 84.4925 14.2699 84.1772 15.1648C83.8704 16.0597 83.717 17.0781 83.717 18.2202C83.717 19.3622 83.8704 20.3807 84.1772 21.2756C84.4925 22.1705 84.957 22.8778 85.5707 23.3977C86.1928 23.9091 86.9599 24.1648 87.8718 24.1648ZM109.487 28V1.81818H115.022V23.4361H126.246V28H109.487ZM129.81 28V8.36364H135.256V28H129.81ZM132.546 5.83239C131.736 5.83239 131.042 5.56392 130.462 5.02699C129.891 4.48153 129.605 3.82954 129.605 3.07102C129.605 2.32102 129.891 1.67756 130.462 1.14062C131.042 0.59517 131.736 0.322442 132.546 0.322442C133.355 0.322442 134.046 0.59517 134.617 1.14062C135.196 1.67756 135.486 2.32102 135.486 3.07102C135.486 3.82954 135.196 4.48153 134.617 5.02699C134.046 5.56392 133.355 5.83239 132.546 5.83239ZM155.957 13.9631L150.971 14.2699C150.886 13.8437 150.702 13.4602 150.421 13.1193C150.14 12.7699 149.769 12.4929 149.309 12.2884C148.857 12.0753 148.316 11.9688 147.685 11.9688C146.842 11.9688 146.13 12.1477 145.55 12.5057C144.971 12.8551 144.681 13.3239 144.681 13.9119C144.681 14.3807 144.869 14.777 145.244 15.1009C145.619 15.4247 146.262 15.6847 147.174 15.8807L150.728 16.5966C152.637 16.9886 154.06 17.6193 154.998 18.4886C155.935 19.358 156.404 20.5 156.404 21.9148C156.404 23.2017 156.025 24.331 155.266 25.3026C154.516 26.2741 153.485 27.0327 152.173 27.5781C150.869 28.1151 149.364 28.3835 147.66 28.3835C145.06 28.3835 142.989 27.8423 141.447 26.7599C139.913 25.669 139.013 24.1861 138.749 22.3111L144.106 22.0298C144.268 22.8224 144.66 23.4276 145.282 23.8452C145.904 24.2543 146.701 24.4588 147.673 24.4588C148.627 24.4588 149.394 24.2756 149.974 23.9091C150.562 23.5341 150.86 23.0526 150.869 22.4645C150.86 21.9702 150.651 21.5653 150.242 21.25C149.833 20.9261 149.202 20.679 148.35 20.5085L144.95 19.831C143.032 19.4474 141.604 18.7827 140.667 17.8366C139.738 16.8906 139.273 15.6847 139.273 14.2188C139.273 12.9574 139.614 11.8707 140.296 10.9588C140.987 10.0469 141.954 9.34375 143.198 8.84943C144.451 8.35511 145.917 8.10795 147.596 8.10795C150.076 8.10795 152.028 8.6321 153.451 9.6804C154.883 10.7287 155.718 12.1562 155.957 13.9631ZM170.278 8.36364V12.4545H158.453V8.36364H170.278ZM161.137 3.65909H166.583V21.9659C166.583 22.4687 166.66 22.8608 166.814 23.142C166.967 23.4148 167.18 23.6065 167.453 23.7173C167.734 23.8281 168.058 23.8835 168.424 23.8835C168.68 23.8835 168.936 23.8622 169.191 23.8196C169.447 23.7685 169.643 23.7301 169.779 23.7045L170.636 27.7571C170.363 27.8423 169.98 27.9403 169.485 28.0511C168.991 28.1705 168.39 28.2429 167.683 28.2685C166.37 28.3196 165.22 28.1449 164.231 27.7443C163.251 27.3437 162.488 26.7216 161.943 25.8778C161.397 25.0341 161.129 23.9687 161.137 22.6818V3.65909Z" fill="#292D32"/>
</g>
<defs>
<filter id="filter0_i_305_182" x="0.27832" y="0.322441" width="170.358" height="32.0611" filterUnits="userSpaceOnUse" color-interpolation-filters="sRGB">
<feFlood flood-opacity="0" result="BackgroundImageFix"/>
<feBlend mode="normal" in="SourceGraphic" in2="BackgroundImageFix" result="shape"/>
<feColorMatrix in="SourceAlpha" type="matrix" values="0 0 0 0 0 0 0 0 0 0 0 0 0 0 0 0 0 0 127 0" result="hardAlpha"/>
<feOffset dy="4"/>
<feGaussianBlur stdDeviation="2"/>
<feComposite in2="hardAlpha" operator="arithmetic" k2="-1" k3="1"/>
<feColorMatrix type="matrix" values="0 0 0 0 0 0 0 0 0 0 0 0 0 0 0 0 0 0 0.25 0"/>
<feBlend mode="normal" in2="shape" result="effect1_innerShadow_305_182"/>
</filter>
</defs>
</svg>
